<svg width="18" height="27" viewBox="0 0 18 27" fill="none" xmlns="http://www.w3.org/2000/svg">
<path d="M9.33335 1C4.73843 1 1 4.73843 1 9.33335C1 10.7127 1.34487 12.0804 2.00049 13.2935L8.87764 25.7314C8.96919 25.8973 9.14365 26 9.33335 26C9.52305 26 9.69751 25.8973 9.78906 25.7314L16.6687 13.2894C17.3218 12.0804 17.6667 10.7127 17.6667 9.3333C17.6667 4.73843 13.9283 1 9.33335 1ZM15.7547 12.7895L9.33335 24.4029L2.9145 12.794C2.34331 11.7371 2.0417 10.5403 2.0417 9.33335C2.0417 5.31265 5.3127 2.0417 9.33335 2.0417C13.354 2.0417 16.625 5.3127 16.625 9.33335C16.625 10.5403 16.3234 11.7371 15.7547 12.7895Z" fill="white"/>
<path d="M9.33326 5.1667C7.0358 5.1667 5.16661 7.03589 5.16661 9.33335C5.16661 11.6309 7.0358 13.5001 9.33326 13.5001C11.6307 13.5001 13.4999 11.6309 13.4999 9.3334C13.4999 7.03594 11.6307 5.1667 9.33326 5.1667ZM9.33326 12.4584C7.61002 12.4584 6.20826 11.0566 6.20826 9.3334C6.20826 7.61016 7.61002 6.2084 9.33326 6.2084C11.0565 6.2084 12.4583 7.61016 12.4583 9.3334C12.4583 11.0566 11.0565 12.4584 9.33326 12.4584Z" fill="white"/>
<path d="M9.33335 1C4.73843 1 1 4.73843 1 9.33335C1 10.7127 1.34487 12.0804 2.00049 13.2935L8.87764 25.7314C8.96919 25.8973 9.14365 26 9.33335 26C9.52305 26 9.69751 25.8973 9.78906 25.7314L16.6687 13.2894C17.3218 12.0804 17.6667 10.7127 17.6667 9.3333C17.6667 4.73843 13.9283 1 9.33335 1ZM15.7547 12.7895L9.33335 24.4029L2.9145 12.794C2.34331 11.7371 2.0417 10.5403 2.0417 9.33335C2.0417 5.31265 5.3127 2.0417 9.33335 2.0417C13.354 2.0417 16.625 5.3127 16.625 9.33335C16.625 10.5403 16.3234 11.7371 15.7547 12.7895Z" stroke="white" stroke-width="0.5"/>
<path d="M9.33326 5.1667C7.0358 5.1667 5.16661 7.03589 5.16661 9.33335C5.16661 11.6309 7.0358 13.5001 9.33326 13.5001C11.6307 13.5001 13.4999 11.6309 13.4999 9.3334C13.4999 7.03594 11.6307 5.1667 9.33326 5.1667ZM9.33326 12.4584C7.61002 12.4584 6.20826 11.0566 6.20826 9.3334C6.20826 7.61016 7.61002 6.2084 9.33326 6.2084C11.0565 6.2084 12.4583 7.61016 12.4583 9.3334C12.4583 11.0566 11.0565 12.4584 9.33326 12.4584Z" stroke="white" stroke-width="0.5"/>
</svg>
