<svg width="68" height="53" viewBox="0 0 68 53" fill="none" xmlns="http://www.w3.org/2000/svg">
<path d="M37.2812 15.0625C36.9912 15.0625 36.713 15.1777 36.5079 15.3829C36.3027 15.588 36.1875 15.8662 36.1875 16.1562V20.5312C36.1875 20.8213 36.3027 21.0995 36.5079 21.3046C36.713 21.5098 36.9912 21.625 37.2812 21.625C37.5713 21.625 37.8495 21.5098 38.0546 21.3046C38.2598 21.0995 38.375 20.8213 38.375 20.5312V16.1562C38.375 15.8662 38.2598 15.588 38.0546 15.3829C37.8495 15.1777 37.5713 15.0625 37.2812 15.0625Z" fill="#2E57EA"/>
<path d="M34 15.0625C33.7099 15.0625 33.4317 15.1777 33.2266 15.3829C33.0215 15.588 32.9062 15.8662 32.9062 16.1562V20.5312C32.9062 20.8213 33.0215 21.0995 33.2266 21.3046C33.4317 21.5098 33.7099 21.625 34 21.625C34.2901 21.625 34.5683 21.5098 34.7734 21.3046C34.9785 21.0995 35.0938 20.8213 35.0938 20.5312V16.1562C35.0938 15.8662 34.9785 15.588 34.7734 15.3829C34.5683 15.1777 34.2901 15.0625 34 15.0625Z" fill="#2E57EA"/>
<path d="M40.5625 15.0625C40.2724 15.0625 39.9942 15.1777 39.7891 15.3829C39.584 15.588 39.4688 15.8662 39.4688 16.1562V20.5312C39.4688 20.8213 39.584 21.0995 39.7891 21.3046C39.9942 21.5098 40.2724 21.625 40.5625 21.625C40.8526 21.625 41.1308 21.5098 41.3359 21.3046C41.541 21.0995 41.6562 20.8213 41.6562 20.5312V16.1562C41.6562 15.8662 41.541 15.588 41.3359 15.3829C41.1308 15.1777 40.8526 15.0625 40.5625 15.0625Z" fill="#2E57EA"/>
<path d="M52.5938 15.0625C52.3037 15.0625 52.0255 15.1777 51.8204 15.3829C51.6152 15.588 51.5 15.8662 51.5 16.1562V20.5312C51.5 20.8213 51.6152 21.0995 51.8204 21.3046C52.0255 21.5098 52.3037 21.625 52.5938 21.625C52.8838 21.625 53.162 21.5098 53.3671 21.3046C53.5723 21.0995 53.6875 20.8213 53.6875 20.5312V16.1562C53.6875 15.8662 53.5723 15.588 53.3671 15.3829C53.162 15.1777 52.8838 15.0625 52.5938 15.0625Z" fill="#2E57EA"/>
<path d="M49.3125 15.0625C49.0224 15.0625 48.7442 15.1777 48.5391 15.3829C48.334 15.588 48.2188 15.8662 48.2188 16.1562V20.5312C48.2188 20.8213 48.334 21.0995 48.5391 21.3046C48.7442 21.5098 49.0224 21.625 49.3125 21.625C49.6026 21.625 49.8808 21.5098 50.0859 21.3046C50.291 21.0995 50.4062 20.8213 50.4062 20.5312V16.1562C50.4062 15.8662 50.291 15.588 50.0859 15.3829C49.8808 15.1777 49.6026 15.0625 49.3125 15.0625Z" fill="#2E57EA"/>
<path d="M55.875 21.625C56.1651 21.625 56.4433 21.5098 56.6484 21.3046C56.8535 21.0995 56.9688 20.8213 56.9688 20.5312V16.1562C56.9688 15.8662 56.8535 15.588 56.6484 15.3829C56.4433 15.1777 56.1651 15.0625 55.875 15.0625C55.5849 15.0625 55.3067 15.1777 55.1016 15.3829C54.8965 15.588 54.7812 15.8662 54.7812 16.1562V20.5312C54.7812 20.8213 54.8965 21.0995 55.1016 21.3046C55.3067 21.5098 55.5849 21.625 55.875 21.625Z" fill="#2E57EA"/>
<path d="M46.0312 10.6875C46.3213 10.6875 46.5995 10.5723 46.8046 10.3671C47.0098 10.162 47.125 9.88383 47.125 9.59375V5.21875C47.125 4.92867 47.0098 4.65047 46.8046 4.44535C46.5995 4.24023 46.3213 4.125 46.0312 4.125C45.7412 4.125 45.463 4.24023 45.2579 4.44535C45.0527 4.65047 44.9375 4.92867 44.9375 5.21875V9.59375C44.9375 9.88383 45.0527 10.162 45.2579 10.3671C45.463 10.5723 45.7412 10.6875 46.0312 10.6875Z" fill="#2E57EA"/>
<path d="M42.75 4.125C42.4599 4.125 42.1817 4.24023 41.9766 4.44535C41.7715 4.65047 41.6562 4.92867 41.6562 5.21875V9.59375C41.6562 9.88383 41.7715 10.162 41.9766 10.3671C42.1817 10.5723 42.4599 10.6875 42.75 10.6875C43.0401 10.6875 43.3183 10.5723 43.5234 10.3671C43.7285 10.162 43.8438 9.88383 43.8438 9.59375V5.21875C43.8438 4.92867 43.7285 4.65047 43.5234 4.44535C43.3183 4.24023 43.0401 4.125 42.75 4.125Z" fill="#2E57EA"/>
<path d="M49.3125 10.6875C49.6026 10.6875 49.8808 10.5723 50.0859 10.3671C50.291 10.162 50.4062 9.88383 50.4062 9.59375V5.21875C50.4062 4.92867 50.291 4.65047 50.0859 4.44535C49.8808 4.24023 49.6026 4.125 49.3125 4.125C49.0224 4.125 48.7442 4.24023 48.5391 4.44535C48.334 4.65047 48.2188 4.92867 48.2188 5.21875V9.59375C48.2188 9.88383 48.334 10.162 48.5391 10.3671C48.7442 10.5723 49.0224 10.6875 49.3125 10.6875Z" fill="#2E57EA"/>
<path d="M66.8125 40.2188H59.8316L67.7914 24.302C67.8746 24.1351 67.9137 23.9498 67.9052 23.7636C67.8967 23.5773 67.8408 23.3964 67.7427 23.2378C67.6447 23.0793 67.5078 22.9484 67.345 22.8575C67.1822 22.7667 66.9989 22.7189 66.8125 22.7188H61.3438V12.875C61.3438 12.5849 61.2285 12.3067 61.0234 12.1016C60.8183 11.8965 60.5401 11.7812 60.25 11.7812H54.7812V1.9375C54.7812 1.64742 54.666 1.36922 54.4609 1.1641C54.2558 0.958984 53.9776 0.84375 53.6875 0.84375H38.375C38.0849 0.84375 37.8067 0.958984 37.6016 1.1641C37.3965 1.36922 37.2812 1.64742 37.2812 1.9375V11.7812H29.625C29.3349 11.7812 29.0567 11.8965 28.8516 12.1016C28.6465 12.3067 28.5312 12.5849 28.5312 12.875V22.7188H24.1562V12.875C24.1562 12.5849 24.041 12.3067 23.8359 12.1016C23.6308 11.8965 23.3526 11.7812 23.0625 11.7812H18.6875V8.5C18.6875 8.20992 18.5723 7.93172 18.3671 7.7266C18.162 7.52148 17.8838 7.40625 17.5938 7.40625H14.3125V1.9375C14.3125 1.64742 14.1973 1.36922 13.9921 1.1641C13.787 0.958984 13.5088 0.84375 13.2188 0.84375C12.9287 0.84375 12.6505 0.958984 12.4454 1.1641C12.2402 1.36922 12.125 1.64742 12.125 1.9375V3.44961L11.5207 3.14609C11.3922 3.08182 11.2522 3.04349 11.1088 3.0333C10.9655 3.02311 10.8215 3.04126 10.6852 3.08671C10.4098 3.1785 10.1822 3.37592 10.0523 3.63555C9.98807 3.7641 9.94974 3.90405 9.93955 4.04742C9.92936 4.19078 9.94751 4.33475 9.99296 4.4711C10.0848 4.74647 10.2822 4.9741 10.5418 5.10391L12.125 5.89414V7.40625H11.0312C10.7412 7.40625 10.463 7.52148 10.2579 7.7266C10.0527 7.93172 9.9375 8.20992 9.9375 8.5V11.7812H7.75C7.45992 11.7812 7.18172 11.8965 6.9766 12.1016C6.77148 12.3067 6.65625 12.5849 6.65625 12.875V22.7188H1.1875C1.0213 22.7188 0.857297 22.7567 0.707939 22.8296C0.558581 22.9025 0.4278 23.0084 0.325527 23.1394C0.223255 23.2704 0.152182 23.423 0.117707 23.5856C0.0832311 23.7482 0.0862597 23.9165 0.126562 24.0777L4.16113 40.2188H1.1875C0.897419 40.2188 0.61922 40.334 0.414102 40.5391C0.208984 40.7442 0.09375 41.0224 0.09375 41.3125C0.09375 41.6026 0.208984 41.8808 0.414102 42.0859C0.61922 42.291 0.897419 42.4062 1.1875 42.4062H66.8125C67.1026 42.4062 67.3808 42.291 67.5859 42.0859C67.791 41.8808 67.9062 41.6026 67.9062 41.3125C67.9062 41.0224 67.791 40.7442 67.5859 40.5391C67.3808 40.334 67.1026 40.2188 66.8125 40.2188ZM59.1562 13.9688V22.7188H46.0312V13.9688H59.1562ZM39.4688 3.03125H52.5938V11.7812H39.4688V3.03125ZM30.7188 13.9688H43.8438V22.7188H30.7188V13.9688ZM12.125 9.59375H16.5V11.7812H12.125V9.59375ZM8.84375 13.9688H21.9688V15.0625H14.3125C14.0224 15.0625 13.7442 15.1777 13.5391 15.3829C13.334 15.588 13.2188 15.8662 13.2188 16.1562V20.5312C13.2188 20.8213 13.334 21.0995 13.5391 21.3046C13.7442 21.5098 14.0224 21.625 14.3125 21.625H21.9688V22.7188H8.84375V13.9688ZM21.9688 17.25V19.4375H15.4062V17.25H21.9688ZM57.3871 40.2188H6.41699L2.58887 24.9062H65.0434L57.3871 40.2188Z" fill="#2E57EA"/>
<path d="M15.4062 27.0938H6.65625C6.36617 27.0938 6.08797 27.209 5.88285 27.4141C5.67773 27.6192 5.5625 27.8974 5.5625 28.1875C5.5625 28.4776 5.67773 28.7558 5.88285 28.9609C6.08797 29.166 6.36617 29.2812 6.65625 29.2812H15.4062C15.6963 29.2812 15.9745 29.166 16.1796 28.9609C16.3848 28.7558 16.5 28.4776 16.5 28.1875C16.5 27.8974 16.3848 27.6192 16.1796 27.4141C15.9745 27.209 15.6963 27.0938 15.4062 27.0938Z" fill="#2E57EA"/>
<path d="M19.7812 27.0938H18.6875C18.3974 27.0938 18.1192 27.209 17.9141 27.4141C17.709 27.6192 17.5938 27.8974 17.5938 28.1875C17.5938 28.4776 17.709 28.7558 17.9141 28.9609C18.1192 29.166 18.3974 29.2812 18.6875 29.2812H19.7812C20.0713 29.2812 20.3495 29.166 20.5546 28.9609C20.7598 28.7558 20.875 28.4776 20.875 28.1875C20.875 27.8974 20.7598 27.6192 20.5546 27.4141C20.3495 27.209 20.0713 27.0938 19.7812 27.0938Z" fill="#2E57EA"/>
<path d="M66.8125 45.6875C65.2923 45.6875 64.6023 45.2737 63.7288 44.7496C62.7526 44.1638 61.646 43.5 59.5201 43.5C57.3941 43.5 56.2875 44.1638 55.3112 44.7496C54.4377 45.2737 53.7477 45.6875 52.2276 45.6875C50.7076 45.6875 50.018 45.2737 49.1446 44.7496C48.1684 44.1638 47.062 43.5 44.9361 43.5C42.8103 43.5 41.704 44.1638 40.7277 44.7496C39.8543 45.2737 39.1646 45.6875 37.6445 45.6875C36.1245 45.6875 35.435 45.2737 34.5616 44.7497C33.5855 44.1638 32.479 43.5 30.3532 43.5C28.2273 43.5 27.121 44.1638 26.1448 44.7497C25.2715 45.2737 24.5817 45.6875 23.0625 45.6875C21.5433 45.6875 20.8529 45.2737 19.9795 44.7497C19.0033 44.1638 17.8969 43.5 15.7709 43.5C13.6449 43.5 12.5387 44.1638 11.5625 44.7496C10.6886 45.2737 9.99889 45.6875 8.47912 45.6875C6.95936 45.6875 6.2692 45.2737 5.39598 44.7496C4.41981 44.1638 3.31334 43.5 1.1875 43.5C0.897419 43.5 0.61922 43.6152 0.414102 43.8204C0.208984 44.0255 0.09375 44.3037 0.09375 44.5938C0.09375 44.8838 0.208984 45.162 0.414102 45.3671C0.61922 45.5723 0.897419 45.6875 1.1875 45.6875C2.7074 45.6875 3.39715 46.1013 4.27051 46.6253C5.24668 47.2112 6.35314 47.875 8.47912 47.875C10.6051 47.875 11.7113 47.2112 12.6875 46.6253C13.5605 46.1013 14.2506 45.6875 15.7703 45.6875C17.2901 45.6875 17.9801 46.1013 18.8535 46.6254C19.8296 47.2112 20.9361 47.875 23.062 47.875C25.1878 47.875 26.2943 47.2112 27.2703 46.6253C28.1437 46.1013 28.8334 45.6875 30.3532 45.6875C31.8729 45.6875 32.5628 46.1013 33.4362 46.6254C34.4125 47.2112 35.5188 47.875 37.6445 47.875C39.7702 47.875 40.877 47.2112 41.8531 46.6253C42.7265 46.1013 43.4162 45.6875 44.9361 45.6875C46.456 45.6875 47.1458 46.1013 48.0191 46.6254C48.9954 47.2112 50.1018 47.875 52.2276 47.875C54.3535 47.875 55.4602 47.2112 56.4364 46.6254C57.3099 46.1013 57.9999 45.6875 59.5201 45.6875C61.0402 45.6875 61.7301 46.1013 62.6035 46.6254C63.5798 47.2112 64.6864 47.875 66.8125 47.875C67.1026 47.875 67.3808 47.7598 67.5859 47.5546C67.791 47.3495 67.9062 47.0713 67.9062 46.7812C67.9062 46.4912 67.791 46.213 67.5859 46.0079C67.3808 45.8027 67.1026 45.6875 66.8125 45.6875Z" fill="#2E57EA"/>
<path d="M66.8125 50.0625C65.2923 50.0625 64.6023 49.6487 63.7288 49.1246C62.7526 48.5388 61.646 47.875 59.5201 47.875C57.3941 47.875 56.2875 48.5388 55.3112 49.1246C54.4377 49.6487 53.7477 50.0625 52.2276 50.0625C50.7076 50.0625 50.018 49.6487 49.1446 49.1246C48.1684 48.5388 47.062 47.875 44.9361 47.875C42.8103 47.875 41.704 48.5388 40.7277 49.1246C39.8543 49.6487 39.1646 50.0625 37.6445 50.0625C36.1245 50.0625 35.435 49.6487 34.5616 49.1247C33.5855 48.5388 32.479 47.875 30.3532 47.875C28.2273 47.875 27.121 48.5388 26.1448 49.1247C25.2715 49.6487 24.5817 50.0625 23.0625 50.0625C21.5433 50.0625 20.8529 49.6487 19.9795 49.1247C19.0033 48.5388 17.8969 47.875 15.7709 47.875C13.6449 47.875 12.5387 48.5388 11.5625 49.1246C10.6886 49.6487 9.99889 50.0625 8.47912 50.0625C6.95936 50.0625 6.2692 49.6487 5.39598 49.1246C4.41981 48.5388 3.31334 47.875 1.1875 47.875C0.897419 47.875 0.61922 47.9902 0.414102 48.1954C0.208984 48.4005 0.09375 48.6787 0.09375 48.9688C0.09375 49.2588 0.208984 49.537 0.414102 49.7421C0.61922 49.9473 0.897419 50.0625 1.1875 50.0625C2.7074 50.0625 3.39715 50.4763 4.27051 51.0003C5.24668 51.5862 6.35314 52.25 8.47912 52.25C10.6051 52.25 11.7113 51.5862 12.6875 51.0003C13.5605 50.4763 14.2506 50.0625 15.7703 50.0625C17.2901 50.0625 17.9801 50.4763 18.8535 51.0004C19.8296 51.5862 20.9361 52.25 23.062 52.25C25.1878 52.25 26.2943 51.5862 27.2703 51.0003C28.1437 50.4763 28.8334 50.0625 30.3532 50.0625C31.8729 50.0625 32.5628 50.4763 33.4362 51.0004C34.4125 51.5862 35.5188 52.25 37.6445 52.25C39.7702 52.25 40.877 51.5862 41.8531 51.0003C42.7265 50.4763 43.4162 50.0625 44.9361 50.0625C46.456 50.0625 47.1458 50.4763 48.0191 51.0004C48.9954 51.5862 50.1018 52.25 52.2276 52.25C54.3535 52.25 55.4602 51.5862 56.4364 51.0004C57.3099 50.4763 57.9999 50.0625 59.5201 50.0625C61.0402 50.0625 61.7301 50.4763 62.6035 51.0004C63.5798 51.5862 64.6864 52.25 66.8125 52.25C67.1026 52.25 67.3808 52.1348 67.5859 51.9296C67.791 51.7245 67.9062 51.4463 67.9062 51.1562C67.9062 50.8662 67.791 50.588 67.5859 50.3829C67.3808 50.1777 67.1026 50.0625 66.8125 50.0625Z" fill="#2E57EA"/>
</svg>
