<svg width="70" height="70" viewBox="0 0 70 70" fill="none" xmlns="http://www.w3.org/2000/svg">
<path d="M67.8125 51.4062H59.515L61.7025 49.2188H65.625C66.4949 49.2176 67.3288 48.8715 67.9439 48.2564C68.559 47.6413 68.9051 46.8074 68.9062 45.9375C68.9062 33.2719 58.6031 22.9688 45.9375 22.9688H2.1875C1.89742 22.9688 1.61922 23.084 1.4141 23.2891C1.20898 23.4942 1.09375 23.7724 1.09375 24.0625V48.125C1.09375 48.4151 1.20898 48.6933 1.4141 48.8984C1.61922 49.1035 1.89742 49.2188 2.1875 49.2188H11.5787L9.39121 51.4062H2.1875C1.89742 51.4062 1.61922 51.5215 1.4141 51.7266C1.20898 51.9317 1.09375 52.2099 1.09375 52.5V56.875C1.09375 57.1651 1.20898 57.4433 1.4141 57.6484C1.61922 57.8535 1.89742 57.9688 2.1875 57.9688H67.8125C68.1026 57.9688 68.3808 57.8535 68.5859 57.6484C68.791 57.4433 68.9062 57.1651 68.9062 56.875V52.5C68.9062 52.2099 68.791 51.9317 68.5859 51.7266C68.3808 51.5215 68.1026 51.4062 67.8125 51.4062ZM64.2346 36.0938H41.2576L39.7988 31.7188H61.0777C62.3146 33.0346 63.3757 34.5052 64.2346 36.0938ZM3.28125 47.0312V25.1562H45.9375C50.5537 25.152 55.0386 26.692 58.6783 29.5312H38.2812C38.1079 29.5312 37.9371 29.5724 37.7828 29.6514C37.6285 29.7304 37.4952 29.8449 37.3939 29.9855C37.2925 30.126 37.2261 30.2887 37.1999 30.4601C37.1738 30.6314 37.1887 30.8065 37.2436 30.9709L39.4311 37.5334C39.5037 37.7512 39.6429 37.9406 39.8292 38.0748C40.0154 38.2091 40.2392 38.2813 40.4688 38.2812H65.2572C66.2251 40.7177 66.7211 43.3159 66.7188 45.9375C66.7184 46.2275 66.603 46.5054 66.398 46.7105C66.1929 46.9155 65.915 47.0309 65.625 47.0312H3.28125ZM58.61 49.2188L56.4225 51.4062H35.4525L37.64 49.2188H58.61ZM34.5475 49.2188L32.36 51.4062H12.4838L14.6713 49.2188H34.5475ZM66.7188 55.7812H3.28125V53.5938H66.7188V55.7812Z" fill="#2E57EA"/>
<path d="M34.944 30.2791C34.8714 30.0613 34.7322 29.8719 34.5459 29.7377C34.3597 29.6035 34.1359 29.5312 33.9063 29.5313H5.46883C5.29552 29.5312 5.12468 29.5724 4.9704 29.6514C4.81612 29.7304 4.68281 29.8449 4.58147 29.9855C4.48013 30.126 4.41365 30.2887 4.38751 30.4601C4.36137 30.6314 4.37632 30.8065 4.43114 30.9709L6.61864 37.5334C6.69124 37.7512 6.83053 37.9406 7.01677 38.0748C7.20301 38.2091 7.42676 38.2813 7.65633 38.2812H36.0938C36.2672 38.2813 36.438 38.2401 36.5923 38.1611C36.7466 38.0822 36.8799 37.9676 36.9812 37.8271C37.0826 37.6865 37.149 37.5238 37.1752 37.3524C37.2013 37.1811 37.1864 37.006 37.1315 36.8416L34.944 30.2791ZM8.44465 36.0938L6.98641 31.7188H33.118L34.5763 36.0938H8.44465Z" fill="#2E57EA"/>
<path d="M28.4375 18.5938C28.1474 18.5938 27.8692 18.709 27.6641 18.9141C27.459 19.1192 27.3438 19.3974 27.3438 19.6875C27.3438 19.9776 27.459 20.2558 27.6641 20.4609C27.8692 20.666 28.1474 20.7812 28.4375 20.7812H37.1875C37.4776 20.7812 37.7558 20.666 37.9609 20.4609C38.166 20.2558 38.2812 19.9776 38.2812 19.6875C38.2812 19.3974 38.166 19.1192 37.9609 18.9141C37.7558 18.709 37.4776 18.5938 37.1875 18.5938H28.4375Z" fill="#2E57EA"/>
<path d="M24.0625 20.7812H25.1562C25.4463 20.7812 25.7245 20.666 25.9296 20.4609C26.1348 20.2558 26.25 19.9776 26.25 19.6875C26.25 19.3974 26.1348 19.1192 25.9296 18.9141C25.7245 18.709 25.4463 18.5938 25.1562 18.5938H24.0625C23.7724 18.5938 23.4942 18.709 23.2891 18.9141C23.084 19.1192 22.9688 19.3974 22.9688 19.6875C22.9688 19.9776 23.084 20.2558 23.2891 20.4609C23.4942 20.666 23.7724 20.7812 24.0625 20.7812Z" fill="#2E57EA"/>
<path d="M24.0625 17.5H41.5625C41.8526 17.5 42.1308 17.3848 42.3359 17.1796C42.541 16.9745 42.6562 16.6963 42.6562 16.4062C42.6562 16.1162 42.541 15.838 42.3359 15.6329C42.1308 15.4277 41.8526 15.3125 41.5625 15.3125H24.0625C23.7724 15.3125 23.4942 15.4277 23.2891 15.6329C23.084 15.838 22.9688 16.1162 22.9688 16.4062C22.9688 16.6963 23.084 16.9745 23.2891 17.1796C23.4942 17.3848 23.7724 17.5 24.0625 17.5Z" fill="#2E57EA"/>
<path d="M37.1875 14.2188H45.9375C46.2276 14.2188 46.5058 14.1035 46.7109 13.8984C46.916 13.6933 47.0312 13.4151 47.0312 13.125C47.0312 12.8349 46.916 12.5567 46.7109 12.3516C46.5058 12.1465 46.2276 12.0312 45.9375 12.0312H37.1875C36.8974 12.0312 36.6192 12.1465 36.4141 12.3516C36.209 12.5567 36.0938 12.8349 36.0938 13.125C36.0938 13.4151 36.209 13.6933 36.4141 13.8984C36.6192 14.1035 36.8974 14.2188 37.1875 14.2188Z" fill="#2E57EA"/>
</svg>
