<svg width="70" height="70" viewBox="0 0 70 70" fill="none" xmlns="http://www.w3.org/2000/svg">
<path d="M13.0924 47.126H13.0813C12.515 47.126 12.0615 47.5851 12.0615 48.1514C12.0615 48.7177 12.5261 49.1768 13.0924 49.1768C13.6587 49.1768 14.1178 48.7177 14.1178 48.1514C14.1178 47.5851 13.6587 47.126 13.0924 47.126Z" fill="#2E57EA"/>
<path d="M21.86 47.126H21.849C21.2827 47.126 20.8291 47.5851 20.8291 48.1514C20.8291 48.7177 21.2937 49.1768 21.86 49.1768C22.4262 49.1768 22.8853 48.7177 22.8853 48.1514C22.8853 47.5851 22.4262 47.126 21.86 47.126Z" fill="#2E57EA"/>
<path d="M58.026 47.126H58.015C57.4487 47.126 56.9951 47.5851 56.9951 48.1514C56.9951 48.7177 57.4597 49.1768 58.026 49.1768C58.5923 49.1768 59.0514 48.7177 59.0514 48.1514C59.0514 47.5851 58.5923 47.126 58.026 47.126Z" fill="#2E57EA"/>
<path d="M69.0577 34.7287L67.6791 33.3501L64.9016 25.0176C65.316 24.8859 65.6164 24.4983 65.6164 24.0405C65.6164 23.4742 65.1573 23.0151 64.591 23.0151H54.6568V18.561C54.6568 17.3913 53.7053 16.4397 52.5355 16.4397H2.12133C0.951564 16.4397 0 17.3914 0 18.561V42.672C0 43.8417 0.951564 44.7933 2.12133 44.7933H3.28782V47.0552C3.28782 48.225 4.23938 49.1765 5.40915 49.1765H7.77043C8.25113 51.6703 10.4489 53.5603 13.0809 53.5603C14.8831 53.5603 16.4812 52.6735 17.4646 51.3143C18.4482 52.6735 20.0463 53.5603 21.8485 53.5603C24.4805 53.5603 26.6784 51.6703 27.159 49.1765H52.7046C53.1853 51.6703 55.3831 53.5603 58.0151 53.5603C60.9977 53.5603 63.4242 51.1337 63.4242 48.1511C63.4242 48.1276 63.4227 48.1045 63.4225 48.0811H67.8787C69.0484 48.0811 70 47.1296 70 45.9598V37.0036C70.0001 36.1443 69.6655 35.3365 69.0577 34.7287ZM7.77043 47.1259H5.40915C5.37019 47.1259 5.3386 47.0943 5.3386 47.0553V44.7934H8.84476C8.31429 45.4614 7.93791 46.2566 7.77043 47.1259ZM13.0809 51.5098C11.229 51.5098 9.7225 50.0031 9.7225 48.1514C9.7225 46.3066 11.2178 44.8049 13.0599 44.7934H13.1021C14.9442 44.8048 16.4395 46.3065 16.4395 48.1514C16.4394 50.0031 14.9327 51.5098 13.0809 51.5098ZM21.8487 51.5098C19.9968 51.5098 18.4902 50.0031 18.4902 48.1514C18.4902 46.3066 19.9854 44.8049 21.8276 44.7934H21.8697C23.7119 44.8048 25.2072 46.3065 25.2072 48.1514C25.207 50.0031 23.7005 51.5098 21.8487 51.5098ZM52.7048 47.1259H27.1591C26.9916 46.2566 26.6152 45.4613 26.0846 44.7933H45.9596C46.5259 44.7933 46.985 44.3342 46.985 43.7679C46.985 43.2016 46.5259 42.7425 45.9596 42.7425H2.12133C2.08237 42.7425 2.05079 42.7109 2.05079 42.672V18.561C2.05079 18.5221 2.08237 18.4905 2.12133 18.4905H52.5354C52.5743 18.4905 52.6059 18.5221 52.6059 18.561V42.7427H50.3439C49.7776 42.7427 49.3185 43.2018 49.3185 43.768C49.3185 44.3343 49.7776 44.7934 50.3439 44.7934H53.7791C53.2485 45.4614 52.8723 46.2566 52.7048 47.1259ZM65.7255 33.9745H59.1112C59.0722 33.9745 59.0406 33.9429 59.0406 33.9039V29.4495H64.2172L65.7255 33.9745ZM58.0152 51.5098C56.1633 51.5098 54.6568 50.0031 54.6568 48.1514C54.6568 46.3066 56.1521 44.8049 57.9943 44.7934H58.0153C58.0177 44.7934 58.02 44.7932 58.0225 44.793C59.871 44.7969 61.3739 46.3019 61.3739 48.1513C61.3736 50.0031 59.8671 51.5098 58.0152 51.5098ZM67.9493 45.9601C67.9493 45.999 67.9178 46.0306 67.8788 46.0306H62.9908C62.1644 44.0992 60.2455 42.7422 58.0152 42.7422C58.0081 42.7422 58.0013 42.7428 57.9942 42.7428H54.6568V25.1368V25.1363C54.6568 25.0973 54.6884 25.0657 54.7274 25.0657H62.7559L63.5336 27.3987H58.0152C57.4489 27.3987 56.9898 27.8578 56.9898 28.4241V33.9039C56.9898 35.0737 57.9414 36.0252 59.1112 36.0252H67.454L67.6077 36.1789C67.8279 36.3993 67.9493 36.6922 67.9493 37.0037V39.4548H66.7829C66.2166 39.4548 65.7575 39.9139 65.7575 40.4802C65.7575 41.0465 66.2166 41.5056 66.7829 41.5056H67.9493V45.9601Z" fill="#2E57EA"/>
<path d="M49.2464 38.3589H5.4082C4.84191 38.3589 4.38281 38.818 4.38281 39.3843C4.38281 39.9506 4.84191 40.4097 5.4082 40.4097H49.2464C49.8127 40.4097 50.2718 39.9506 50.2718 39.3843C50.2718 38.818 49.8127 38.3589 49.2464 38.3589Z" fill="#2E57EA"/>
</svg>
